<?xml version="1.0" encoding="UTF-8"?>
<svg xmlns="http://www.w3.org/2000/svg" xmlns:xlink="http://www.w3.org/1999/xlink" width="20pt" height="20pt" viewBox="0 0 20 20" version="1.1">
<g id="surface1">
<path style=" stroke:none;fill-rule:nonzero;fill:rgb(0%,0%,0%);fill-opacity:1;" d="M 0 0 L 9.351562 0 L 9.351562 4.0625 L 0 4.0625 Z M 0 0 "/>
<path style=" stroke:none;fill-rule:nonzero;fill:rgb(0%,0%,0%);fill-opacity:1;" d="M 0 5.3125 L 5.898438 5.3125 L 5.898438 9.375 L 0 9.375 Z M 0 5.3125 "/>
<path style=" stroke:none;fill-rule:nonzero;fill:rgb(0%,0%,0%);fill-opacity:1;" d="M 7.152344 5.3125 L 12.941406 5.3125 L 12.941406 9.375 L 7.152344 9.375 Z M 7.152344 5.3125 "/>
<path style=" stroke:none;fill-rule:nonzero;fill:rgb(0%,0%,0%);fill-opacity:1;" d="M 14.207031 5.3125 L 20 5.3125 L 20 9.375 L 14.207031 9.375 Z M 14.207031 5.3125 "/>
<path style=" stroke:none;fill-rule:nonzero;fill:rgb(0%,0%,0%);fill-opacity:1;" d="M 10.648438 0 L 20 0 L 20 4.0625 L 10.648438 4.0625 Z M 10.648438 0 "/>
<path style=" stroke:none;fill-rule:nonzero;fill:rgb(0%,0%,0%);fill-opacity:1;" d="M 0 10.625 L 9.351562 10.625 L 9.351562 14.6875 L 0 14.6875 Z M 0 10.625 "/>
<path style=" stroke:none;fill-rule:nonzero;fill:rgb(0%,0%,0%);fill-opacity:1;" d="M 0 15.9375 L 5.898438 15.9375 L 5.898438 20 L 0 20 Z M 0 15.9375 "/>
<path style=" stroke:none;fill-rule:nonzero;fill:rgb(0%,0%,0%);fill-opacity:1;" d="M 7.152344 15.9375 L 12.945312 15.9375 L 12.945312 20 L 7.152344 20 Z M 7.152344 15.9375 "/>
<path style=" stroke:none;fill-rule:nonzero;fill:rgb(0%,0%,0%);fill-opacity:1;" d="M 14.207031 15.9375 L 20 15.9375 L 20 20 L 14.207031 20 Z M 14.207031 15.9375 "/>
<path style=" stroke:none;fill-rule:nonzero;fill:rgb(0%,0%,0%);fill-opacity:1;" d="M 10.648438 10.625 L 20 10.625 L 20 14.6875 L 10.648438 14.6875 Z M 10.648438 10.625 "/>
</g>
</svg>
